<svg xmlns="http://www.w3.org/2000/svg" width="104" height="25" fill="none">
    <path fill="#fff" d="M0 4.98v19.13h2.75V10.26h.17l5.64 13.82h2.28l5.64-13.81h.18V24.1h2.75V4.98h-3.5L9.8 19.85h-.2L3.5 4.98H0ZM30.05 24.4c3.13 0 5.34-1.54 5.97-3.88l-2.64-.48c-.5 1.36-1.72 2.05-3.3 2.05-2.4 0-4-1.55-4.08-4.32h10.2v-.98c0-5.19-3.1-7.21-6.35-7.21-4 0-6.63 3.04-6.63 7.45 0 4.45 2.6 7.37 6.83 7.37ZM26 15.68c.12-2.03 1.6-3.8 3.86-3.8 2.17 0 3.59 1.6 3.6 3.8H26Zm24.05-2.42c-.58-2.23-2.33-3.68-5.43-3.68-3.24 0-5.53 1.7-5.53 4.24 0 2.04 1.23 3.4 3.92 4l2.43.52c1.38.31 2.02.93 2.02 1.83 0 1.1-1.18 1.98-3.01 1.98-1.68 0-2.75-.72-3.09-2.13l-2.7.4c.47 2.55 2.58 3.98 5.8 3.98 3.47 0 5.87-1.84 5.87-4.44 0-2.03-1.29-3.28-3.92-3.88l-2.28-.53c-1.58-.37-2.26-.9-2.25-1.87-.01-1.1 1.18-1.9 2.77-1.9 1.74 0 2.54.97 2.87 1.93l2.53-.45Zm10.05-3.5h-2.95V6.33h-2.79v3.43h-2.1V12h2.1v8.47c0 2.61 1.98 3.87 4.19 3.82.88 0 1.48-.17 1.8-.3l-.5-2.3c-.18.04-.53.12-.98.12-.9 0-1.72-.3-1.72-1.91V12h2.95V9.76Zm8.97 14.64c4.05 0 6.69-2.96 6.69-7.4 0-4.46-2.64-7.42-6.69-7.42-4.04 0-6.68 2.96-6.68 7.42 0 4.44 2.64 7.4 6.68 7.4Zm.01-2.35c-2.64 0-3.87-2.3-3.87-5.06 0-2.75 1.23-5.08 3.87-5.08 2.63 0 3.86 2.33 3.86 5.08 0 2.76-1.23 5.06-3.86 5.06ZM78.3 6.57h.77V4.08h1.55l1.35 2.5h.9l-1.45-2.64c.82-.28 1.2-.94 1.2-1.79 0-1.12-.68-1.95-2.17-1.95H78.3v6.37Zm.77-3.18V.89h1.36c1.03 0 1.43.5 1.43 1.26 0 .77-.4 1.24-1.42 1.24h-1.37Zm7.75 1.23c0 .9-.69 1.3-1.24 1.3-.6 0-1.04-.44-1.04-1.14V1.8h-.74v3.04c0 1.22.65 1.8 1.55 1.8.72 0 1.2-.38 1.42-.86h.05v.8h.73V1.8h-.73v2.83Zm5.46-1.76c-.23-.67-.74-1.13-1.69-1.13-1 0-1.75.57-1.75 1.38 0 .66.39 1.1 1.27 1.31l.8.19c.47.1.7.34.7.67 0 .41-.43.75-1.12.75-.6 0-.98-.26-1.1-.78l-.7.18c.17.81.84 1.24 1.81 1.24 1.12 0 1.87-.6 1.87-1.43 0-.66-.42-1.08-1.27-1.3l-.7-.17c-.57-.14-.83-.33-.83-.7 0-.4.44-.7 1.02-.7.64 0 .9.35 1.03.68l.66-.19Zm4.58 0c-.23-.67-.74-1.13-1.69-1.13-1 0-1.75.57-1.75 1.38 0 .66.39 1.1 1.27 1.31l.8.19c.47.1.7.34.7.67 0 .41-.43.75-1.12.75-.6 0-.98-.26-1.1-.78l-.7.18c.17.81.84 1.24 1.81 1.24 1.11 0 1.87-.6 1.87-1.43 0-.66-.42-1.08-1.27-1.3l-.7-.17c-.57-.14-.83-.33-.83-.7 0-.4.44-.7 1.02-.7.64 0 .9.35 1.03.68l.66-.19Zm1.2 3.71h.73V1.8h-.73v4.78ZM98.43 1c.29 0 .52-.23.52-.5a.5.5 0 0 0-.52-.5.51.51 0 0 0-.52.5c0 .27.23.5.52.5Zm3.12 5.69c.83 0 1.27-.45 1.41-.76h.04v.64h.74V3.42c0-1.51-1.16-1.69-1.77-1.69-.72 0-1.55.25-1.92 1.12l.7.25c.16-.35.54-.72 1.24-.72.68 0 1.01.36 1.01.97v.02c0 .36-.36.33-1.23.44-.89.12-1.86.31-1.86 1.4 0 .94.73 1.48 1.64 1.48Zm.1-.66c-.58 0-1-.26-1-.78 0-.56.5-.73 1.08-.8.31-.04 1.15-.13 1.27-.28v.67c0 .6-.47 1.19-1.34 1.19Z"/>
</svg>